<?xml version="1.0" standalone="no"?>
<!DOCTYPE svg PUBLIC "-//W3C//DTD SVG 20010904//EN"
 "http://www.w3.org/TR/2001/REC-SVG-20010904/DTD/svg10.dtd">
<svg version="1.0" xmlns="http://www.w3.org/2000/svg"
 width="666.000000pt" height="375.000000pt" viewBox="0 0 666.000000 375.000000"
 preserveAspectRatio="xMidYMid meet">

<g transform="translate(0.000000,375.000000) scale(0.100000,-0.100000)"
fill="#ffffff" stroke="none">
<path d="M4136 2993 c-96 -20 -178 -56 -263 -115 -82 -56 -332 -255 -510 -405
-388 -327 -660 -551 -695 -575 -22 -15 -62 -32 -90 -37 -31 -7 -236 -11 -554
-11 l-504 0 6 -27 c3 -16 21 -61 40 -102 45 -97 150 -204 244 -249 60 -28 191
-62 240 -62 l21 0 -20 -26 c-11 -15 -62 -69 -111 -121 -50 -52 -89 -100 -87
-106 5 -16 888 -22 1047 -7 260 25 463 93 665 224 157 103 340 293 426 442 35
62 57 72 34 17 -25 -60 -104 -202 -147 -266 -135 -199 -323 -352 -543 -443
-44 -18 -81 -38 -83 -43 -4 -12 55 -51 77 -51 7 0 34 -11 60 -23 43 -22 53
-23 156 -16 385 25 668 160 860 410 156 201 323 673 395 1114 l11 70 142 66
c197 92 196 99 -21 99 l-170 0 -25 43 c-50 84 -180 169 -308 201 -80 20 -200
19 -293 -1z m284 -243 c12 -8 11 -10 -7 -10 -12 0 -34 -11 -50 -24 -22 -19
-28 -32 -28 -66 0 -34 6 -47 28 -66 56 -48 147 -15 147 52 0 15 3 25 6 21 12
-11 5 -106 -9 -134 -34 -64 -111 -102 -181 -89 -76 14 -145 111 -131 185 17
88 77 141 160 141 27 0 57 -5 65 -10z"/>
</g>
</svg>
